<?xml version="1.0" encoding="UTF-8"?>
<!DOCTYPE svg PUBLIC "-//W3C//DTD SVG 1.1//EN" "http://www.w3.org/Graphics/SVG/1.1/DTD/svg11.dtd">
<svg xmlns="http://www.w3.org/2000/svg" version="1.1" width="300px" height="291px" style="shape-rendering:geometricPrecision; text-rendering:geometricPrecision; image-rendering:optimizeQuality; fill-rule:evenodd; clip-rule:evenodd" xmlns:xlink="http://www.w3.org/1999/xlink">
<g><path style="opacity:0.821" fill="#f7f7f7" d="M 123.5,-0.5 C 135.5,-0.5 147.5,-0.5 159.5,-0.5C 203.965,3.81519 240.798,22.8152 270,56.5C 285.941,78.3792 295.774,102.713 299.5,129.5C 299.5,142.167 299.5,154.833 299.5,167.5C 296.466,192.099 287.632,214.432 273,234.5C 273.324,254.019 265.157,268.853 248.5,279C 238.667,284.551 228.333,288.384 217.5,290.5C 207.5,290.5 197.5,290.5 187.5,290.5C 183.356,288.17 178.856,286.504 174,285.5C 171.181,285.993 168.681,287.16 166.5,289C 162.975,289.179 159.641,289.679 156.5,290.5C 150.5,290.5 144.5,290.5 138.5,290.5C 97.1386,287.128 62.1386,270.128 33.5,239.5C 24.0897,226.775 18.923,212.441 18,196.5C 10.1918,190.552 4.02509,183.219 -0.5,174.5C -0.5,170.5 -0.5,166.5 -0.5,162.5C 5.6468,145.532 17.6468,134.698 35.5,130C 43.6719,127.666 52.0053,126.499 60.5,126.5C 60.7394,124.533 60.4061,122.699 59.5,121C 63.7455,111.752 70.7455,105.752 80.5,103C 88.1667,102.667 95.8333,102.333 103.5,102C 107.836,96.9609 111.169,91.7942 113.5,86.5C 114.376,86.3691 115.043,86.7025 115.5,87.5C 112.702,93.6022 109.035,99.1022 104.5,104C 96.8333,104.333 89.1667,104.667 81.5,105C 70.0549,108.266 64.0549,115.766 63.5,127.5C 43.3751,126.822 26.2084,133.488 12,147.5C 8.27894,152.275 5.61228,157.609 4,163.5C 3.90112,172.314 6.90112,179.98 13,186.5C 15.7026,189.538 18.7026,192.205 22,194.5C 24.2639,218.196 34.7639,237.362 53.5,252C 86.7396,277.852 124.406,288.519 166.5,284C 168.169,281.915 170.336,280.749 173,280.5C 197.499,288.491 221.333,286.657 244.5,275C 256.505,268.001 264.339,257.834 268,244.5C 268.333,240.167 268.667,235.833 269,231.5C 282.286,212.914 290.62,192.247 294,169.5C 299.371,128.982 290.038,92.3153 266,59.5C 237.073,25.7877 200.24,7.62101 155.5,5C 137.049,3.85324 118.716,4.85324 100.5,8C 85.7628,11.2055 72.0961,16.8722 59.5,25C 48.5168,33.1299 43.6835,43.9633 45,57.5C 46.5266,60.5531 48.0266,63.5531 49.5,66.5C 48.8826,66.6107 48.3826,66.944 48,67.5C 37.1601,51.3074 38.9934,36.4741 53.5,23C 66.1132,13.7874 80.1132,7.4541 95.5,4C 104.94,2.24923 114.273,0.749227 123.5,-0.5 Z"/></g>
<g><path style="opacity:1" fill="#2d292a" d="M 113.5,86.5 C 111.208,86.2436 109.041,86.5769 107,87.5C 101.569,86.2468 96.0691,85.2468 90.5,84.5C 89.914,84.7093 89.414,85.0426 89,85.5C 85.7414,83.6777 82.4081,83.011 79,83.5C 70.5456,80.541 62.0456,76.7077 53.5,72C 52.3353,70.0083 51.002,68.175 49.5,66.5C 48.0266,63.5531 46.5266,60.5531 45,57.5C 43.6835,43.9633 48.5168,33.1299 59.5,25C 72.0961,16.8722 85.7628,11.2055 100.5,8C 118.716,4.85324 137.049,3.85324 155.5,5C 200.24,7.62101 237.073,25.7877 266,59.5C 290.038,92.3153 299.371,128.982 294,169.5C 290.62,192.247 282.286,212.914 269,231.5C 268.667,235.833 268.333,240.167 268,244.5C 264.339,257.834 256.505,268.001 244.5,275C 221.333,286.657 197.499,288.491 173,280.5C 170.336,280.749 168.169,281.915 166.5,284C 124.406,288.519 86.7396,277.852 53.5,252C 34.7639,237.362 24.2639,218.196 22,194.5C 18.7026,192.205 15.7026,189.538 13,186.5C 6.90112,179.98 3.90112,172.314 4,163.5C 5.61228,157.609 8.27894,152.275 12,147.5C 26.2084,133.488 43.3751,126.822 63.5,127.5C 64.0549,115.766 70.0549,108.266 81.5,105C 89.1667,104.667 96.8333,104.333 104.5,104C 109.035,99.1022 112.702,93.6022 115.5,87.5C 115.043,86.7025 114.376,86.3691 113.5,86.5 Z"/></g>
<g><path style="opacity:1" fill="#fdfdfd" d="M 91.5,107.5 C 106.816,106.641 122.149,106.308 137.5,106.5C 158.943,106.532 180.277,108.032 201.5,111C 204.693,112.026 206.026,114.192 205.5,117.5C 208.968,117.27 211.635,115.77 213.5,113C 213.095,112.055 212.428,111.388 211.5,111C 195.136,106.718 178.469,104.385 161.5,104C 145.174,103.167 128.84,102.5 112.5,102C 115.624,97.586 118.624,93.086 121.5,88.5C 134.802,88.3783 148.135,88.2116 161.5,88C 166.966,87.3675 172.3,86.2009 177.5,84.5C 178.484,81.5719 178.817,78.5719 178.5,75.5C 170.172,78.7713 161.505,80.938 152.5,82C 125.825,84.4807 99.8251,81.4807 74.5,73C 67.447,70.2696 61.947,65.7696 58,59.5C 54.8043,45.7401 58.9709,34.9068 70.5,27C 88.0028,16.5359 107.003,10.5359 127.5,9C 162.515,6.76056 195.515,13.7606 226.5,30C 265.924,56.0004 285.59,92.8338 285.5,140.5C 286.192,167.733 279.692,193.066 266,216.5C 264.959,218.585 263.459,220.252 261.5,221.5C 252.62,212.808 241.953,207.642 229.5,206C 221.173,205.5 212.84,205.334 204.5,205.5C 199.875,183.41 190.208,163.91 175.5,147C 181.219,142.411 183.719,136.577 183,129.5C 181.167,127.667 179.333,125.833 177.5,124C 169.029,122.463 161.029,123.629 153.5,127.5C 148.779,122.656 143.779,122.323 138.5,126.5C 133.464,117.737 126.797,116.237 118.5,122C 108.167,122.333 97.8333,122.667 87.5,123C 83.9828,124.484 82.1495,126.984 82,130.5C 86.7679,134.162 86.2679,137.162 80.5,139.5C 65.4966,122.197 69.1632,111.53 91.5,107.5 Z"/></g>
<g><path style="opacity:0.996" fill="#a6a5a5" d="M 137.5,106.5 C 122.149,106.308 106.816,106.641 91.5,107.5C 100.11,105.951 108.943,105.284 118,105.5C 124.675,105.5 131.175,105.834 137.5,106.5 Z"/></g>
<g><path style="opacity:1" fill="#5176b8" d="M 124.5,185.5 C 131.051,185.489 137.051,183.656 142.5,180C 145.118,177.894 147.118,175.394 148.5,172.5C 149.835,168.828 151.168,165.162 152.5,161.5C 155.294,153.526 153.294,147.026 146.5,142C 139.149,140.441 132.483,141.941 126.5,146.5C 123.286,141.062 118.62,139.229 112.5,141C 103.801,144.096 95.9679,148.596 89,154.5C 87.5272,150.221 85.5272,146.221 83,142.5C 82.3333,141.5 82.3333,140.5 83,139.5C 91.2961,132.432 100.796,128.265 111.5,127C 109.241,128.715 107.074,130.548 105,132.5C 104.312,133.332 104.479,133.998 105.5,134.5C 110.644,130.51 116.144,127.177 122,124.5C 127.078,125.12 130.578,127.786 132.5,132.5C 135.161,129.919 138.327,128.253 142,127.5C 144.893,128.226 147.059,129.893 148.5,132.5C 151.888,130.139 155.554,128.306 159.5,127C 166.361,125.423 170.694,127.923 172.5,134.5C 171.679,139.145 170.012,143.479 167.5,147.5C 169.766,148.314 172.1,148.814 174.5,149C 176,149.833 177.167,151 178,152.5C 185.31,167.429 191.643,182.763 197,198.5C 198.369,203.437 197.203,207.604 193.5,211C 191.333,212.5 189.167,214 187,215.5C 187.021,218.876 188.688,221.209 192,222.5C 196.883,218.624 202.049,215.124 207.5,212C 222.579,208.68 236.912,210.68 250.5,218C 266.45,232.926 266.45,247.926 250.5,263C 233.822,276.336 214.822,282.003 193.5,280C 185.711,276.606 178.378,272.44 171.5,267.5C 169.417,268.959 167.25,270.292 165,271.5C 165.053,274.613 163.886,277.113 161.5,279C 128.382,281.911 97.3819,275.244 68.5,259C 51.79,248.957 39.29,235.124 31,217.5C 28.9872,212.297 27.4872,206.963 26.5,201.5C 26.8333,200.167 27.1667,198.833 27.5,197.5C 42.8223,205.947 59.1556,209.614 76.5,208.5C 77.6139,207.277 77.7805,205.944 77,204.5C 58.6765,204.17 41.8431,199.003 26.5,189C 13.1048,177.289 10.9382,163.789 20,148.5C 28.7433,141.377 38.5766,136.21 49.5,133C 55.6427,130.655 61.9761,129.989 68.5,131C 72.1345,133.425 74.9678,136.592 77,140.5C 84.3736,154.074 90.207,168.241 94.5,183C 96.9262,181.967 99.4262,180.8 102,179.5C 105.063,180.881 107.896,182.714 110.5,185C 115.155,185.499 119.821,185.666 124.5,185.5 Z"/></g>
<g><path style="opacity:1" fill="#f8f8f8" d="M 119.5,153.5 C 115.734,155.43 112.734,158.264 110.5,162C 107.471,162.539 104.471,163.206 101.5,164C 99.6499,166.018 97.6499,167.851 95.5,169.5C 93.7784,165.056 91.7784,160.722 89.5,156.5C 97.9589,147.602 108.292,143.102 120.5,143C 123.08,144.481 123.913,146.648 123,149.5C 121.624,150.705 120.458,152.038 119.5,153.5 Z"/></g>
<g><path style="opacity:1" fill="#fafafa" d="M 152.5,161.5 C 151.168,165.162 149.835,168.828 148.5,172.5C 146.544,169.461 144.21,166.628 141.5,164C 139.833,163.333 138.167,163.333 136.5,164C 128.403,168.724 124.403,175.557 124.5,184.5C 109.553,186.993 104.72,180.993 110,166.5C 112.687,161.782 115.854,157.449 119.5,153.5C 124.106,149.855 129.106,146.689 134.5,144C 148.2,141.866 154.2,147.699 152.5,161.5 Z"/></g>
<g><path style="opacity:1" fill="#2c282a" d="M 148.5,172.5 C 147.118,175.394 145.118,177.894 142.5,180C 137.051,183.656 131.051,185.489 124.5,185.5C 124.5,185.167 124.5,184.833 124.5,184.5C 124.403,175.557 128.403,168.724 136.5,164C 138.167,163.333 139.833,163.333 141.5,164C 144.21,166.628 146.544,169.461 148.5,172.5 Z"/></g>
<g><path style="opacity:1" fill="#f0f0f0" d="M 100.5,170.5 C 104.225,170.78 105.392,172.78 104,176.5C 102.301,177.406 100.467,177.739 98.5,177.5C 98.1658,174.812 98.8325,172.479 100.5,170.5 Z"/></g>
<g><path style="opacity:1" fill="#f6f6f6" d="M 134.5,173.5 C 138.677,172.842 140.177,174.508 139,178.5C 137.211,180.229 135.044,180.896 132.5,180.5C 132.166,177.812 132.832,175.479 134.5,173.5 Z"/></g>
<g><path style="opacity:1" fill="#2a2627" d="M 141.5,203.5 C 146.293,204.229 150.626,206.063 154.5,209C 157.064,210.062 158.731,211.896 159.5,214.5C 159.225,216.609 158.058,217.942 156,218.5C 154.178,216.898 152.345,215.231 150.5,213.5C 146.159,216.672 141.492,219.339 136.5,221.5C 135.348,224.106 135.182,226.773 136,229.5C 138.333,235.167 140.667,240.833 143,246.5C 145.59,258.495 141.09,266.328 129.5,270C 124.167,270.667 118.833,270.667 113.5,270C 97.8097,263.575 84.3097,254.075 73,241.5C 69.635,236.103 66.8016,230.437 64.5,224.5C 58.4077,222.436 52.241,220.769 46,219.5C 45.8433,215.818 47.6767,213.818 51.5,213.5C 51.1367,215.911 52.1367,217.411 54.5,218C 79.8201,222.61 105.153,222.61 130.5,218C 136.275,216.357 141.608,213.857 146.5,210.5C 143.61,208.957 141.943,206.624 141.5,203.5 Z"/></g>
<g><path style="opacity:1" fill="#242023" d="M 217.5,235.5 C 229.194,234.272 240.194,236.439 250.5,242C 254.276,244.245 254.276,246.079 250.5,247.5C 247.288,245.802 243.954,244.302 240.5,243C 236.5,242.333 232.5,242.333 228.5,243C 229.83,245.877 229.664,248.711 228,251.5C 224.827,253.613 221.327,254.613 217.5,254.5C 217.391,261.121 214.058,265.287 207.5,267C 200.64,269.298 193.973,268.965 187.5,266C 184.502,262.182 185.502,260.016 190.5,259.5C 197.157,261.779 203.823,261.946 210.5,260C 213.593,254.232 212.593,249.232 207.5,245C 206.167,244.333 204.833,244.333 203.5,245C 199.855,247.808 195.855,249.975 191.5,251.5C 190,251.547 189,250.881 188.5,249.5C 196.769,241.865 206.436,237.198 217.5,235.5 Z"/></g>
<g><path style="opacity:1" fill="#e81c24" d="M 124.5,241.5 C 138.16,241.653 142.327,247.986 137,260.5C 129.941,268.413 122.107,269.413 113.5,263.5C 108.78,256.371 109.78,250.204 116.5,245C 119.158,243.522 121.825,242.355 124.5,241.5 Z"/></g>
</svg>
